<svg version="1.0" viewBox="0 0 91.8 92.6" xml:space="preserve" xmlns="http://www.w3.org/2000/svg"><g fill="#f7941d" class="fill-1e1e1e"><path d="M48.5 50.2v15.1c4.3-.9 6.5-3.2 6.5-6.9 0-3.2-2.2-5.9-6.5-8.2zM38.9 34.2c0 1.9.4 3.5 1.3 4.7.9 1.2 2.5 2.5 4.8 3.7V27c-1.9.4-3.4 1.2-4.5 2.5s-1.6 2.9-1.6 4.7z"></path><path d="M46.9 4.2c-23.5 0-42.5 19-42.5 42.5s19 42.5 42.5 42.5 42.5-19 42.5-42.5c.1-23.5-19-42.5-42.5-42.5zm10.5 61.6c-2.1 2.1-5.1 3.5-8.9 4.1v7.2H45v-7c-4.8 0-8.6-1-11.6-2.9v-5.8c1.3 1.1 3.1 2.1 5.3 2.8 2.3.8 4.3 1.1 6.3 1.1V48.4c-4.9-2.4-8.1-4.5-9.6-6.5s-2.2-4.3-2.2-7c0-3.2 1.1-6 3.3-8.3 2.2-2.3 5-3.7 8.4-4.2v-6h3.5v5.9c4.4.1 7.4.8 9.1 1.9v5.7c-2.3-1.8-5.3-2.7-9.1-2.9v17.6c4.7 2.2 7.8 4.3 9.6 6.4 1.7 2.1 2.6 4.4 2.6 7 0 3-1.1 5.6-3.2 7.8z"></path></g></svg>