<svg viewBox="0 0 24 24" xmlns="http://www.w3.org/2000/svg"><path d="M8 2v3h8V2h2v3h1.436c.892 0 1.215.093 1.54.267.327.174.583.43.757.756.174.326.267.65.267 1.54v11.873c0 .892-.093 1.215-.267 1.54-.174.327-.43.583-.756.757-.326.174-.65.267-1.54.267H4.563c-.892 0-1.215-.093-1.54-.267a1.817 1.817 0 0 1-.757-.756c-.16-.301-.252-.6-.265-1.345L2 7.564c0-.892.093-1.215.267-1.54.174-.327.43-.583.756-.757.301-.16.6-.252 1.345-.265L6 5V2h2Zm4.159 10.032a.415.415 0 0 0-.542.224l-.95 2.286-2.465.198a.415.415 0 0 0-.237.728l1.879 1.612-.574 2.409a.415.415 0 0 0 .62.45l2.11-1.29 2.11 1.29a.415.415 0 0 0 .62-.45l-.574-2.41 1.879-1.611a.415.415 0 0 0-.237-.728l-2.466-.198-.95-2.286a.415.415 0 0 0-.223-.224ZM19 7H5a1 1 0 0 0-1 1v2h16V8a1 1 0 0 0-1-1Z" fill="#727272" fill-rule="nonzero" class="fill-000000"></path></svg>