<svg data-name="Layer 1" viewBox="0 0 64 64" xmlns="http://www.w3.org/2000/svg"><path d="M50.86 38.07H13.14a1 1 0 0 1-1-1V15.43a1 1 0 0 1 1-1h37.72a1 1 0 0 1 1 1v21.64a1 1 0 0 1-1 1Zm-36.72-2h35.72V16.43H14.14Z" fill="#727272" class="fill-231f20"></path><path d="M29.54 49.57h-4.08a1 1 0 0 1-.84-.46 1 1 0 0 1-.07-1l4.5-9.75a1 1 0 0 1 1.82 0l2 4.42a1 1 0 0 1 0 .84L30.45 49a1 1 0 0 1-.91.57Zm-2.52-2h1.88l2-4.33-.94-2ZM34 39.82a1 1 0 0 1-.91-.58l-.81-1.75a1 1 0 0 1 .07-1 1 1 0 0 1 .84-.46h1.62a1 1 0 0 1 .84.46 1 1 0 0 1 .07 1L35 39.24a1 1 0 0 1-1 .58Z" fill="#727272" class="fill-231f20"></path><path d="M38.54 49.57h-4.08a1 1 0 0 1-.91-.58l-5.31-11.5a1 1 0 0 1 .07-1 1 1 0 0 1 .84-.46h4.08a1 1 0 0 1 .91.58l5.31 11.5a1 1 0 0 1-.07 1 1 1 0 0 1-.84.46Zm-3.44-2H37l-4.39-9.5h-1.9ZM23.39 38.07h-7.47a1 1 0 0 1-1-1v-2.78a1 1 0 0 1 1-1h7.47a1 1 0 0 1 1 1v2.78a1 1 0 0 1-1 1Zm-6.47-2h5.47v-.78h-5.47ZM20.71 31.22a1 1 0 0 1-.71-1.68 26.94 26.94 0 0 1 20.17-7.82 1 1 0 0 1 .83 1.53l-1.5 2.36a1 1 0 1 1-1.69-1.07l.53-.83a25.37 25.37 0 0 0-16.83 7.18 1 1 0 0 1-.8.33Z" fill="#727272" class="fill-231f20"></path><path d="M40.11 23.72a1 1 0 0 1-.81-.41l-1.74-2.39a1 1 0 1 1 1.61-1.18l1.74 2.39a1 1 0 0 1-.21 1.39 1 1 0 0 1-.59.2ZM46.38 34.32H31.91a1 1 0 0 1 0-2h14.47a1 1 0 0 1 0 2Z" fill="#727272" class="fill-231f20"></path></svg>