<svg id="Layer_1" data-name="Layer 1" xmlns="http://www.w3.org/2000/svg" viewBox="0 0 256 256"><defs><style>.cls-1{fill:#fff;}.cls-2{fill:#f7941d;}</style></defs><rect class="cls-1" width="256" height="256"/><path class="cls-2" d="M21.8,133.75q21.4-21.24,42.79-42.49c2.34-2.32,4.49-4.83,6.59-7.1L85.47,98.37,50,133.69,85.7,169.21,71.39,183.5c-.79-.75-1.88-1.73-2.92-2.77Q46.69,159,24.9,137.19c-.95-.95-2.06-1.75-3.1-2.61Z"/><path class="cls-2" d="M121,213.4l-19.87-3.46c9.34-53,18.64-105.77,28-158.94L149,54.48C139.63,107.46,130.33,160.23,121,213.4Z"/><path class="cls-2" d="M198.88,134.31,163.07,99l14-13.62,49,49-48.27,48.23L164.08,169Z"/></svg>